# xmcd
#
# Track frame offsets:
#	150
#	17150
#	28508
#	46149
#	63512
#	81349
#	97603
#	118106
#	140259
#	154276
#	176380
#	181473
#	200754
#	220554
#	235344
#	254308
#	279741
#	296332
#
# Disc length: 4139 seconds
#
# Revision: 0
# Processed by: cddbd v1.5.1PL2 Copyright (c) Steve Scherf et al.
# Submitted via: EasyCDDAExtractor 8.1.2.3
#
DISCID=fb102912
DTITLE=Sakage Kronik - La préface
DYEAR=1900
DGENRE=Rap
TTITLE0=De Retour
TTITLE1=Toujours au Top
TTITLE2=Intervention Violente
TTITLE3=Vie de Ghetto
TTITLE4=Retour aux sources
TTITLE5=Faut un coupable
TTITLE6=Rien a prouvé (Clip Version)
TTITLE7=D'accord ou Pas
TTITLE8=Militants et Resistants
TTITLE9=Ecoute ca Fort
TTITLE10=Interlude des chiffres
TTITLE11=C'est Bouillant
TTITLE12=La Serrure
TTITLE13=La France d'en bas
TTITLE14=Poudrière
TTITLE15=Nouvel Ordre Mondial
TTITLE16=Le Theoreme
TTITLE17=Deserteur
EXTD=
EXTT0=
EXTT1=
EXTT2=
EXTT3=
EXTT4=
EXTT5=
EXTT6=
EXTT7=
EXTT8=
EXTT9=
EXTT10=
EXTT11=
EXTT12=
EXTT13=
EXTT14=
EXTT15=
EXTT16=
EXTT17=
PLAYORDER=
